# xmcd
#
# Track frame offsets: 
#        150
#        16893
#        32680
#        47283
#        59243
#        79571
#        97094
#        120697
#        135526
#        154650
#        168714
#        178090
#
# Disc length: 2621 seconds
#
# Revision: 0
# Processed by: cddbd v1.5.2PL0 Copyright (c) Steve Scherf et al.
# Submitted via: ExactAudioCopy v0.99pb5
#
DISCID=9a0a3b0c
DTITLE=Lisa Mann - Lisa Mann
DYEAR=2011
DGENRE=Blues
TTITLE0=Someday
TTITLE1=Hooked On Rock And Roll
TTITLE2=Helping Hand
TTITLE3=Bentonville Blues
TTITLE4=Little Sister (You Ain't Suffered)
TTITLE5=chemicals
TTITLE6=Down Home Blues
TTITLE7=At Last
TTITLE8=Tryin' (Sanzen Song)
TTITLE9=Real Life Woman
TTITLE10=Broken Record
TTITLE11=Pray For The Junkie
EXTD=
EXTT0=
EXTT1=
EXTT2=
EXTT3=
EXTT4=
EXTT5=
EXTT6=
EXTT7=
EXTT8=
EXTT9=
EXTT10=
EXTT11=
PLAYORDER=
